<svg width="32" height="32" fill="none" xmlns="http://www.w3.org/2000/svg"><path d="M22.547 6.656l.552-1.275.821.797-1.373.478z" fill="#FFE052"/><path d="M23.234 7.477l1.95-.821-.982 2.182-.968-1.36z" fill="#644192"/><path d="M25.367 9.317l1.385-2.097 1.116 1.434-2.501.663z" fill="#46BDD6"/><path d="M29.033 9.022l1.226-.613-.478 1.422-.748-.809z" fill="#EA4F96"/><path d="M30.64 11.34l1.36-.552-.686 1.348-.675-.797z" fill="#644192"/><path d="M28.028 10.04l-3.2.846 1.606 2.109 1.594-2.955z" fill="#826AAD"/><path d="M27.709 13.792l1.704-2.502 1.226 1.705-2.93.797z" fill="#FFE052"/><path d="M27.304 15.496l2.538-1.005-1.496 2.734-1.042-1.73z" fill="#644192"/><path d="M24.202 15.974l1.827-1.483-5.223-8.289 3.396 9.772z" fill="#EA4F96"/><path d="M23.761 17.862l2.673-1.888 1.115 2.293-3.347 1.3-.441-1.705z" fill="#826AAD"/><path d="M24.055 20.474l3.654-.908s-.16 2.183-2.526 4.77c-.355-1.3-1.128-3.862-1.128-3.862z" fill="#46BDD6"/><path d="M23.418 19.726l-.503-1.619-3.911 2.93 4.414-1.311z" fill="#FFE052"/><path d="M19.715 21.38l3.519-.637 1.177 3.862s-1.582 2.244-4.402 3.47c-.16.074-.306-.11-.22-.257.723-1.177 1.422-2.882 1.422-3.875 0-1.152-.295-1.998-1.496-2.562z" fill="#644192"/><path d="M19.482 19.444l3.752-2.992L19.617 5.81l-.135 13.634z" fill="#826AAD"/><path d="M16.209 12.136l2.525-.674-.748-5.922-1.777 6.596z" fill="#46BDD6"/><path d="M16.331 12.995l2.403-.662-.564 8.705-1.839-8.043z" fill="#EA4F96"/><path d="M13.572 4.4c1.705 0 3.52.552 3.52.552l-1.766 6.338-4.046-6.657S12.1 4.4 13.573 4.4z" fill="#644192"/><path d="M7.786 17.36l-4.23-1.129 6.951-11.598-2.721 12.726z" fill="#46BDD6"/><path d="M11.623 19.566L10.507 4.633 7.785 17.359l3.838 2.207z" fill="#644192"/><path d="M15.375 13.105l-4.868-8.472 1.116 14.933 3.752-6.461z" fill="#826AAD"/><path d="M17.324 21.405l-5.701-1.839 3.752-6.461 1.95 8.3z" fill="#46BDD6"/><path d="M7.786 17.36l-1.778 6.878-2.452-8.007 4.23 1.128z" fill="#826AAD"/><path d="M9.257 21.246l-3.25 2.992 1.778-6.879 1.472 3.887zM1.459 10.628l2.097 5.603 2.341-9.759c-1.998.821-3.47 2.415-4.438 4.156z" fill="#644192"/><path d="M5.897 6.472l-2.341 9.76 6.951-11.6s-.613.185-4.61 1.84z" fill="#EA4F96"/><path d="M0 15.668l3.543.564-2.084-5.604C.49 12.358.012 14.245 0 15.668z" fill="#FFE052"/><path d="M0 15.68c0 3.886 2.734 7.43 5.995 8.545L3.543 16.22 0 15.667v.013z" fill="#644192"/><path d="M8.129 24.605c.87 0 1.569-.085 2.28-.27l-1.165-3.089-3.236 2.992c.686.233 1.41.367 2.12.367z" fill="#46BDD6"/><path d="M10.421 24.336c.466-.123.944-.27 1.472-.478l-.258-4.292-3.837-2.207 2.623 6.977z" fill="#EA4F96"/><path d="M13.854 23.06c2.563-1.066 3.458-1.655 3.458-1.655l-5.701-1.839s.343 4.255.257 4.292c.589-.209 1.226-.479 1.986-.797z" fill="#FFE052"/></svg>