<svg width="32" height="32" viewBox="0 0 32 32" fill="none" xmlns="http://www.w3.org/2000/svg">
<path d="M22.5471 6.65596L23.0988 5.38086L23.9203 6.17779L22.5471 6.65596Z" fill="#FFE052"/>
<path d="M23.2336 7.47746L25.1831 6.65601L24.2022 8.83838L23.2336 7.47746Z" fill="#644192"/>
<path d="M25.3669 9.31652L26.7524 7.21997L27.8681 8.65445L25.3669 9.31652Z" fill="#46BDD6"/>
<path d="M29.033 9.02221L30.259 8.40918L29.7809 9.8314L29.033 9.02221Z" fill="#EA4F96"/>
<path d="M30.6392 11.3394L32.0001 10.7877L31.3135 12.1364L30.6392 11.3394Z" fill="#644192"/>
<path d="M28.0276 10.0399L24.8276 10.8859L26.4338 12.9947L28.0276 10.0399Z" fill="#826AAD"/>
<path d="M27.7087 13.7916L29.413 11.2904L30.639 12.9946L27.7087 13.7916Z" fill="#FFE052"/>
<path d="M27.3042 15.4958L29.8421 14.4905L28.3463 17.2246L27.3042 15.4958Z" fill="#644192"/>
<path d="M24.2023 15.974L26.0291 14.4905L20.8062 6.20239L24.2023 15.974Z" fill="#EA4F96"/>
<path d="M23.761 17.8621L26.4338 15.974L27.5495 18.2667L24.2024 19.5663L23.761 17.8621Z" fill="#826AAD"/>
<path d="M24.0552 20.4736L27.7088 19.5663C27.7088 19.5663 27.5494 21.7487 25.1831 24.3356C24.8276 23.036 24.0552 20.4736 24.0552 20.4736Z" fill="#46BDD6"/>
<path d="M23.4177 19.7257L22.915 18.1073L19.0039 21.0376L23.4177 19.7257Z" fill="#FFE052"/>
<path d="M19.7148 21.3808L23.2336 20.7433L24.4106 24.6054C24.4106 24.6054 22.829 26.849 20.0091 28.0751C19.8497 28.1487 19.7026 27.9647 19.7884 27.8176C20.5118 26.6406 21.2106 24.9364 21.2106 23.9433C21.2106 22.7908 20.9164 21.9448 19.7148 21.3808Z" fill="#644192"/>
<path d="M19.4819 19.4437L23.2337 16.4521L19.6168 5.80994L19.4819 19.4437Z" fill="#826AAD"/>
<path d="M16.2085 12.1365L18.7342 11.4621L17.9863 5.54028L16.2085 12.1365Z" fill="#46BDD6"/>
<path d="M16.3311 12.9947L18.7341 12.3326L18.1701 21.0376L16.3311 12.9947Z" fill="#EA4F96"/>
<path d="M13.5725 4.40002C15.2767 4.40002 17.0913 4.95175 17.0913 4.95175L15.3258 11.2904L11.2798 4.63297C11.2798 4.63297 12.1012 4.40002 13.5725 4.40002Z" fill="#644192"/>
<path d="M7.78555 17.3594L3.55566 16.2314L10.5074 4.63293L7.78555 17.3594Z" fill="#46BDD6"/>
<path d="M11.623 19.5663L10.5072 4.63293L7.7854 17.3594L11.623 19.5663Z" fill="#644192"/>
<path d="M15.3748 13.105L10.5073 4.63293L11.623 19.5663L15.3748 13.105Z" fill="#826AAD"/>
<path d="M17.3242 21.4054L11.623 19.5663L15.3748 13.105L17.3242 21.4054Z" fill="#46BDD6"/>
<path d="M7.78555 17.3594L6.00777 24.2376L3.55566 16.2314L7.78555 17.3594Z" fill="#826AAD"/>
<path d="M9.25661 21.246L6.00757 24.2375L7.78535 17.3594L9.25661 21.246Z" fill="#644192"/>
<path d="M1.45898 10.6284L3.55554 16.2314L5.8973 6.47205C3.89883 7.2935 2.42757 8.88737 1.45898 10.6284Z" fill="#644192"/>
<path d="M5.89743 6.47202L3.55566 16.2314L10.5074 4.63293C10.5074 4.63293 9.89436 4.81684 5.89743 6.47202Z" fill="#EA4F96"/>
<path d="M0 15.6675L3.5433 16.2315L1.459 10.6284C0.490422 12.3572 0.0122605 14.2453 0 15.6675Z" fill="#FFE052"/>
<path d="M0 15.6797C0 19.5663 2.7341 23.1096 5.9954 24.2253L3.5433 16.2192L0 15.6675C0 15.6797 0 15.6797 0 15.6797Z" fill="#644192"/>
<path d="M8.12864 24.6054C8.99914 24.6054 9.69799 24.5195 10.4091 24.3356L9.24435 21.246L6.00757 24.2375C6.69416 24.4705 7.41753 24.6054 8.12864 24.6054Z" fill="#46BDD6"/>
<path d="M10.4214 24.3356C10.8873 24.213 11.3654 24.0659 11.8926 23.8575L11.6352 19.5663L7.79761 17.3594L10.4214 24.3356Z" fill="#EA4F96"/>
<path d="M13.8545 23.0605C16.417 21.9939 17.312 21.4054 17.312 21.4054L11.6108 19.5663C11.6108 19.5663 11.9541 23.8207 11.8683 23.8575C12.4568 23.649 13.0944 23.3793 13.8545 23.0605Z" fill="#FFE052"/>
</svg>
